<?xml version="1.0" encoding="utf-8"?>
<!-- Generator: Adobe Illustrator 16.0.0, SVG Export Plug-In . SVG Version: 6.00 Build 0)  -->
<!DOCTYPE svg PUBLIC "-//W3C//DTD SVG 1.1//EN" "http://www.w3.org/Graphics/SVG/1.1/DTD/svg11.dtd">
<svg version="1.1" id="Layer_1" xmlns="http://www.w3.org/2000/svg" xmlns:xlink="http://www.w3.org/1999/xlink" x="0px" y="0px"
	 width="915.328px" height="500px" viewBox="0 0 915.328 500" enable-background="new 0 0 915.328 500" xml:space="preserve">
<g>
	<g>
		<path fill="#003567" d="M500.524,386.986l9.791-1.427c4.459-0.63,4.011,2.426,3.685,4.634l-0.434,3.032
			c-0.533,3.736-1.201,5.337-5.998,6.034l-4.1,0.584l-1.409,9.685l-4.897,0.69L500.524,386.986z M503.945,396.536l2.336-0.345
			c1.845-0.268,2.249-0.618,2.524-2.39l0.347-2.377c0.221-1.577,0.335-2.353-1.826-2.057l-2.399,0.346L503.945,396.536z"/>
		<path fill="#003567" d="M521.268,383.995l9.725-1.413c4.754-0.667,4.342,2.124,4.045,4.27l-0.359,2.493
			c-0.438,2.958-1.569,3.632-3.987,4.438c1.13,0.091,3.471,0.358,3.02,3.5l-0.689,4.725c-0.175,1.206-0.232,2.407,0.663,2.983
			l-5.349,0.75c-0.424-0.8-0.429-1.77-0.327-2.455l0.717-4.966c0.221-1.584,0.372-2.7-2.157-2.342l-2.325,0.353l-1.46,10.219
			l-4.872,0.678L521.268,383.995z M524.74,393l2.531-0.368c2.214-0.329,2.396-1.378,2.568-2.565l0.324-2.203
			c0.268-1.917-0.899-1.751-1.974-1.588l-2.553,0.358L524.74,393z"/>
		<path fill="#003567" d="M543.367,380.817l12.8-1.837l-0.516,3.547l-7.939,1.151l-0.783,5.453l7.442-1.085l-0.506,3.542
			l-7.456,1.048l-1.021,7.157l8.268-1.177l-0.514,3.56l-13.127,1.886L543.367,380.817z"/>
		<path fill="#003567" d="M563.358,377.974l7.885-1.141l0.796,15.799l5.46-16.685l7.813-1.141l-3.348,23.222l-4.846,0.692
			l3.377-20.184l-7.186,20.741l-4.557,0.667l-1.413-19.517l-2.529,20.087l-4.8,0.68L563.358,377.974z"/>
		<path fill="#003567" d="M593.519,373.649l4.823-0.703l-3.362,23.233l-4.831,0.691L593.519,373.649z"/>
		<path fill="#003567" d="M606.395,371.787l4.907-0.703l-2.516,17.272c-0.169,1.248-0.378,2.783,1.906,2.479
			c2.237-0.327,2.449-1.867,2.64-3.159l2.494-17.231l4.894-0.714l-2.597,17.969c-0.434,3.04-2.289,5.969-8.093,6.781
			c-4.562,0.672-6.773-0.983-6.224-4.792L606.395,371.787z"/>
		<path fill="#003567" d="M628.779,368.585l7.912-1.134l0.802,15.792l5.448-16.702l7.809-1.128l-3.357,23.223l-4.828,0.709
			l3.376-20.22l-7.184,20.759l-4.579,0.654l-1.423-19.509l-2.534,20.068l-4.786,0.702L628.779,368.585z"/>
		<path fill="#003567" d="M669.537,362.703l4.845-0.68l-2.851,19.697l7.172-1.013l-0.521,3.5l-12.001,1.728L669.537,362.703z"/>
		<path fill="#003567" d="M686.759,360.203l12.82-1.831l-0.521,3.556l-7.936,1.126l-0.771,5.477l7.431-1.066l-0.512,3.505
			l-7.448,1.085l-1.032,7.126l8.255-1.183l-0.508,3.585l-13.133,1.879L686.759,360.203z"/>
		<path fill="#003567" d="M706.773,357.354l12.79-1.845l-0.516,3.547l-7.929,1.142l-0.789,5.445l7.454-1.062l-0.517,3.529
			l-7.438,1.068l-1.036,7.139l8.269-1.19l-0.519,3.58l-13.14,1.896L706.773,357.354z"/>
		<path fill="#003567" d="M726.762,354.498l7.87-1.123c1.565-0.229,3.471-0.509,4.868,0.722c1.215,1.037,1.162,2.596,0.905,4.446
			l-1.578,10.849c-0.477,3.215-1.472,6.325-7.596,7.212l-7.834,1.114L726.762,354.498z M728.774,373.649
			c2.271-0.346,2.653-0.4,3.058-0.521c1.79-0.492,2.001-1.819,2.115-2.683l1.682-11.57c0.315-2.073-0.447-2.268-2.588-1.964
			l-1.906,0.277L728.774,373.649z"/>
		<path fill="#003567" d="M746.235,366.408l4.866-0.692l-0.377,2.693c-0.192,1.371-0.393,2.711,1.971,2.378
			c2.39-0.342,2.573-1.728,2.898-3.81c0.218-1.638-0.057-2.273-1.217-2.844l-4.239-2.068c-2.268-1.11-2.695-2.644-2.366-5.027
			c0.268-1.813,0.708-3.57,2.618-5.059c1.079-0.88,2.965-1.793,5.513-2.146c2.831-0.418,6.579,0.054,5.99,4.026l-0.327,2.311
			l-4.817,0.69l0.24-1.686c0.154-1.108,0.346-2.364-1.799-2.056c-1.295,0.188-2.289,0.74-2.577,2.639
			c-0.279,1.94,0.151,2.28,1.101,2.742l4.382,2.194c0.855,0.449,1.74,1.134,2.181,1.904c0.566,0.958,0.452,1.687,0.179,3.542
			c-0.286,2.093-0.486,3.365-1.504,4.706c-1.78,2.287-4.825,2.941-6.629,3.214c-4.143,0.587-7.139-0.345-6.562-4.257
			L746.235,366.408z"/>
		<path fill="#003567" d="M780.993,346.705l4.837-0.69l-2.862,19.701l7.192-1.03l-0.516,3.513l-12.007,1.721L780.993,346.705z"/>
		<path fill="#003567" d="M802.259,343.654l5.57-0.812l1.598,22.506l-4.952,0.727l-0.067-3.687l-4.492,0.643l-1.273,3.876
			l-4.867,0.701L802.259,343.654z M801.033,359.373l3.364-0.498l-0.165-9.744L801.033,359.373z"/>
		<path fill="#003567" d="M826.991,347.444l0.318-2.2c0.175-1.159,0.349-2.434-1.922-2.104c-2.47,0.351-2.742,2.097-2.917,3.353
			l-1.766,12.214c-0.23,1.564,0.267,2.273,1.977,2.008c2.436-0.34,2.671-1.923,2.823-3.027l0.528-3.632l-3.029,0.443l0.509-3.5
			l7.89-1.128l-1.819,12.596l-4.166,0.596l0.204-1.377c-0.802,0.799-2.124,2.14-4.947,2.558c-2.355,0.329-5.582-0.083-5.033-3.91
			l1.91-13.257c0.332-2.312,1.124-6.267,8.428-7.32c1.197-0.164,3.445-0.327,4.889,0.321c1.362,0.654,1.672,1.826,1.484,3.281
			l-0.521,3.396L826.991,347.444z"/>
		<path fill="#003567" d="M840.93,338.068l12.798-1.837l-0.519,3.547l-7.932,1.141l-0.786,5.464l7.443-1.066l-0.506,3.511
			l-7.438,1.079l-1.034,7.132l8.264-1.181l-0.513,3.564l-13.133,1.892L840.93,338.068z"/>
		<path fill="#003567" d="M860.94,335.194l9.728-1.389c4.748-0.697,4.354,2.099,4.032,4.239l-0.355,2.509
			c-0.434,2.949-1.574,3.629-3.987,4.434c1.129,0.091,3.466,0.371,3.03,3.505l-0.708,4.719c-0.163,1.178-0.23,2.413,0.682,2.979
			l-5.345,0.758c-0.442-0.807-0.442-1.771-0.339-2.468l0.719-4.937c0.23-1.606,0.394-2.724-2.166-2.354l-2.316,0.322l-1.477,10.242
			l-4.859,0.685L860.94,335.194z M864.387,344.193l2.548-0.363c2.213-0.311,2.395-1.377,2.571-2.565l0.317-2.189
			c0.27-1.928-0.886-1.759-1.968-1.596l-2.553,0.371L864.387,344.193z"/>
	</g>
	<g opacity="0.98">
		<path fill-rule="evenodd" clip-rule="evenodd" fill="#003567" d="M736.702,286.563c-7.659,9.492-15.805,21.704-26.141,31.625
			c-6.366,6.12-15.681,10.31-24.41,12.61c-16.684,4.39-28.257-3.513-33.001-20.27c-0.442-1.552-0.886-3.117-0.942-3.37
			c-10.234,9.617-20.184,19.611-30.888,28.714c-3.824,3.228-9.309,4.974-14.307,6.217c-18.335,4.656-29.946-2.584-36.62-23.186
			c-3.151,3.585-5.847,6.732-8.597,9.832c-9.659,10.86-20.968,19.43-34.825,24.263c-17.936,6.26-30.832-0.091-37.26-18.06
			c-5.176-14.523-4.306-29.406-2.366-44.174c4.282-32.628,11.603-64.362,29.364-92.718c17.382-27.803,40.594-48.702,71.548-60.648
			c2.527-0.961,4.896-5.26,5.389-8.309c6.112-38.292,11.861-76.643,17.698-114.997c0.34-2.303,0.807-4.602,1.251-7.185
			c15.929-2.244,31.798-4.47,48.882-6.909c-2.172,14.914-4.182,29.224-6.325,43.552c-11.508,77.013-23.083,153.995-34.496,231.026
			c-0.852,5.745-1.206,11.682-0.753,17.449c0.706,8.932,6.693,12.087,14.799,7.848c8.987-4.714,15.019-12.098,16.654-22.293
			c7.765-48.687,15.455-97.379,23.01-146.074c0.763-5.05,2.5-7.498,7.96-8.113c13.578-1.477,27.076-3.683,41.882-5.765
			c-2.992,18.887-5.804,36.383-8.492,53.853c-5.136,33.453-10.21,66.892-15.308,100.343c-0.164,1.14-0.639,2.475-0.281,3.451
			c1.741,4.651,2.698,11.899,5.895,13.129c3.99,1.536,11.805-0.223,14.613-3.461c6.261-7.339,10.663-16.315,15.378-24.854
			c3.354-6.052,4.959-13.311,9.186-18.588c14.588-18.244,46.976-16.138,58.853,3.954c3.572,6.07,4.064,13.955,6.55,23.185
			c-5.008-2.062-7.08-2.99-9.206-3.803c-7.584-2.838-14.345-1.938-19.685,4.67c-5.406,6.69-6.174,16.411-1.764,22.937
			c4.833,7.101,12.001,7.938,19.509,6.379c13.377-2.747,22.783-14.912,23.062-30.346c0.367-17.654-6.443-31.93-22.138-40.942
			c-13.024-7.511-25.14-15.774-33.963-28.388c-23.11-33.033-11.191-73.833,26.233-88.859c18.588-7.448,37.576-10.92,57.237-4.394
			c19.889,6.589,28.942,25.82,22.15,46.581c-5.993,18.378-25.97,28.994-44.137,23.5c-14.25-4.349-20.652-15.301-17.552-31.051
			c3.05,0.812,6.013,1.949,9.075,2.305c6.949,0.818,14.322,0.352,17.433-6.759c1.871-4.262,2.287-10.598,0.449-14.691
			c-3.187-7.088-10.847-7.219-17.684-6.223c-19.659,2.869-30.209,25.593-21.236,45.178c4.609,10.113,12.704,16.574,22.23,21.489
			c15.164,7.841,27.848,18.297,35.672,33.767c18.054,35.575-0.952,77.245-41.278,91.072c-19.329,6.652-38.678,8.684-56.337-3.414
			C750.062,301.755,743.345,293.07,736.702,286.563z M587.992,165.387c-14.581-1.904-21.006,7.102-26.564,16.348
			c-13.612,22.583-20.477,47.664-23.942,73.474c-1.848,13.736-1.68,27.865-0.968,41.742c0.194,4.034,4.688,10.031,8.481,11.262
			c7.59,2.48,23.441-11.147,24.585-19.405c1.936-14.118,3.915-28.268,6.04-42.373C579.668,219.726,583.793,193.023,587.992,165.387z
			"/>
		<path fill-rule="evenodd" clip-rule="evenodd" fill="#003567" d="M233.336,56.28c-23.943,10.746-32.991,32.109-38.046,54.337
			c-8.582,37.777-15.379,75.975-21.473,114.221c-9.393,59.025-15.637,118.627-35.166,175.598
			c-3.019,8.818-16.444,42.574-35.011,65.418c-14.234,17.496-32.694,28.851-57.192,33.01c22.87-22.158,32.696-49.552,39.273-78.008
			c5.911-25.495,10.248-51.439,14.242-77.365c8.525-55.308,15.8-110.819,24.817-166.065c2.797-17.135,8.569-33.958,14.625-50.312
			c10.444-28.196,25.691-52.992,55.024-65.794C194.365,60.523,231.543,55.109,233.336,56.28z"/>
		<path fill-rule="evenodd" clip-rule="evenodd" fill="#003567" d="M337.909,322.04c-12.181,20.905-25.057,38.824-43.287,52.294
			c-14.77,10.886-31.281,16.835-49.604,17.291c-21.171,0.526-40.46-12.136-48.842-33.555
			c-17.189-43.903-9.148-85.565,13.858-124.984c15.656-26.8,38.543-44.684,69.354-52.214c34.11-8.323,51.144,9.993,49.621,43.444
			c-1.834,40.815-30.758,77.056-69.686,88.444c-5.501,1.632-11.438,1.746-19.725,2.888c3.346,11.807,5.362,22.967,9.714,33.093
			c4.521,10.535,13.47,13.495,24.773,11.202c12.752-2.62,23.901-8.818,32.148-18.357c10.809-12.541,20.274-26.296,29.801-39.88
			c2.144-3.063,2.689-7.63,3.042-11.614c3.521-38.516,15.612-73.554,41.981-102.635c13.864-15.308,30.182-26.563,51.686-28.383
			c29.34-2.456,47.906,9.412,51.733,38.443c7.817,59.415-7.193,112.448-51.269,155.082c-14.745,14.259-32.984,20.796-53.671,18.825
			c-19.826-1.887-32.067-12.469-37.243-31.609C340.855,334.49,339.649,329.118,337.909,322.04z M391.319,325.673
			c1.317,5.002,2.095,10.291,4.076,15.1c3.043,7.437,8.338,8.291,13.061,1.784c4.047-5.58,7.417-11.929,9.79-18.419
			c10.832-29.872,16.026-60.923,16.899-92.574c0.328-12.075-0.903-24.449-3.408-36.311c-2.056-9.655-9.4-10.647-15.832-2.89
			c-3.282,3.979-6.167,8.648-7.961,13.48C393.572,244.481,389.836,284.592,391.319,325.673z M240.75,296.37
			c10.633,1.552,18.946-2.833,26.515-13.932c10.236-14.972,15.819-31.857,18.403-49.559c1.348-9.391,1.251-19.198,0.284-28.658
			c-0.85-8.572-7.225-10.999-13.514-5.17c-5.211,4.798-9.726,10.971-12.857,17.381C247.365,241.381,242.618,268.229,240.75,296.37z"
			/>
		<path fill-rule="evenodd" clip-rule="evenodd" fill="#003567" d="M715.639,7.689c18.284-2.751,34.877,9.343,37.345,27.243
			c2.475,17.667-10.24,34.977-27.536,37.533c-18.329,2.715-35.028-9.68-37.839-28.068C684.829,26.368,696.949,10.504,715.639,7.689z
			"/>
		<path fill-rule="evenodd" clip-rule="evenodd" fill="#003567" d="M891.793,261.03c11.434-1.715,21.777,5.829,23.349,17
			c1.513,11.055-6.418,21.874-17.227,23.475c-11.461,1.704-21.882-6.059-23.649-17.544
			C872.529,272.688,880.112,262.789,891.793,261.03z"/>
	</g>
	<path opacity="0.98" fill="#003567" d="M83.765,477.753c0,0,0.132-0.381,0.378-1.183c0.182-0.716,0.742-2.158,1.458-3.735
		c1.428-3.226,4.087-7.703,8.471-12.487c4.351-4.804,10.375-9.892,18.025-14.501c7.647-4.626,16.814-8.896,27.571-11.978
		c2.693-0.8,5.503-1.431,8.408-1.988c2.855-0.576,6.086-0.978,8.671-1.396c2.733-0.431,5.521-0.874,8.35-1.297
		c2.885-0.39,5.83-0.789,8.821-1.207c11.916-1.601,24.459-2.882,37.525-3.868c13.054-0.923,26.586-1.585,40.3-1.729
		c13.726-0.23,27.589,0.053,41.311,0.289c13.718,0.285,27.35-0.107,40.208-0.854c11.917-0.783,23.647-1.588,34.998-2.354
		c10.223-0.824,18.724-1.569,26.42-3.619l0.742-0.194l0.183-0.036l0.086-0.025c0.913-0.479-1.135,0.636-0.854,0.497l0.497-0.23
		l2.014-0.825c1.318-0.558,2.626-1.108,3.917-1.66c1.922-0.863,3.727-1.349,5.839-2.41c4.125-1.964,8.188-3.917,11.934-6.141
		c7.686-4.223,14.469-9.062,20.486-13.744c6.019-4.676,11.144-9.34,15.349-13.397c4.232-4.055,7.45-7.544,9.788-9.949
		c2.2-2.438,3.523-3.762,3.523-3.762l5.325,1.887c0,0,0.117,1.85,0.087,5.409c-0.023,3.512-0.403,8.667-1.631,15.229
		c-1.179,6.55-3.466,14.379-7.249,23.094c-3.779,8.715-9.319,18.14-16.942,27.453c-1.949,2.28-3.949,4.623-6.155,6.883
		c-2.134,2.343-4.472,4.537-6.93,6.684c-2.314,2.215-5.389,4.519-8.217,6.786c-1.173,0.868-2.354,1.754-3.522,2.626l-1.757,1.299
		l-0.45,0.334c0.181-0.098-1.95,1.043-1.12,0.605l-0.15,0.104l-0.302,0.188l-1.245,0.765c-13.287,8.479-29.306,13.197-44.454,14.756
		c-15.217,1.419-29.78-0.135-43.657-2.677c-13.914-2.485-27.414-5.487-40.833-7.647c-13.404-2.211-26.672-4.256-39.736-6.154
		c-13.037-1.85-25.881-3.614-38.355-4.966c-12.475-1.408-24.628-2.451-36.098-3.3c-2.861-0.213-5.696-0.389-8.476-0.57
		c-2.855-0.158-5.659-0.304-8.438-0.424c-2.911-0.146-5.093-0.272-7.488-0.207c-2.39,0.042-4.743,0.207-7.061,0.407
		c-9.312,0.867-17.883,2.989-25.132,5.705c-7.257,2.724-13.249,5.949-17.693,9.194c-4.471,3.209-7.346,6.441-9.088,8.764
		c-0.874,1.157-1.4,1.922-1.841,2.734c-0.415,0.729-0.628,1.092-0.628,1.092L83.765,477.753z"/>
	<path opacity="0.98" fill="#003567" d="M209.336,64.336c0,0-1.15,0.542-3.383,1.536c-2.226,0.996-5.469,2.421-9.462,4.357
		c-2.018,0.912-4.24,2.023-6.651,3.22c-2.434,1.135-5.032,2.436-7.792,3.845c-5.534,2.722-11.644,6.112-18.241,9.758
		c-6.609,3.66-13.611,7.834-20.78,12.453c-7.163,4.675-14.556,9.677-21.812,15.2c-7.212,5.543-14.488,11.381-21.208,17.725
		c-6.654,6.391-13.237,12.847-18.593,19.932c-5.425,7.017-9.714,14.61-12.501,22.129c-0.748,1.858-1.257,3.748-1.904,5.567
		c-0.659,1.807-1.139,3.62-1.578,5.427c-1.175,3.481-1.767,6.938-2.842,10.201c-0.622,3.347-1.824,6.477-2.413,9.716
		c-0.29,1.625-0.981,3.202-1.247,4.814c-0.276,1.614-0.627,3.242-1.005,4.853c-0.467,1.604-0.617,3.238-0.893,4.888
		c-0.265,1.661-0.527,3.299-0.787,4.905c-0.389,3.312-0.589,6.587-1.057,9.842c-0.05,3.282-0.296,6.538-0.528,9.723
		c-0.043,3.17,0.044,6.247-0.12,9.26c-0.18,3.014,0.052,5.847,0.052,8.558c0,2.717,0.012,5.259-0.052,7.641
		c0.208,4.639,0.227,8.479,0.12,11.215c-0.043,2.717-0.169,4.244-0.169,4.244l-4.879,2.839c0,0-1.326-0.716-3.64-2.25
		c-2.377-1.491-5.652-3.847-9.676-7.09c-1.905-1.704-3.887-3.712-6.081-5.914c-2.1-2.261-4.577-4.626-6.634-7.573
		c-2.212-2.864-4.387-6.04-6.675-9.503c-1.982-3.565-4.062-7.459-6.037-11.62c-1.817-4.263-3.319-8.891-4.917-13.753
		c-0.535-2.542-1.087-5.094-1.641-7.704c-0.585-2.613-1.102-5.3-1.264-8.089c-1.359-11.099-0.308-23.306,3.004-35.229
		c3.642-11.862,10.092-22.942,17.732-32.657c7.709-9.715,16.48-18.012,25.165-25.827c8.676-7.824,18.001-14.394,27.337-20.22
		c9.28-5.925,18.896-10.553,28.144-14.843c9.343-4.095,18.412-7.668,27.149-10.548c8.715-2.88,17.002-5.304,24.681-7.288
		c7.677-2.023,14.781-3.489,21.056-4.705c6.27-1.255,11.771-2.12,16.335-2.764c4.591-0.65,8.105-1.104,10.526-1.332
		c2.422-0.26,3.69-0.385,3.69-0.385L209.336,64.336z"/>
	<g>
		<path fill="#003567" d="M507.543,436.216l3.545-0.446l3.144,13.438l-3.323,0.418l-0.705-3.342l-6.704,0.83l-2.268,3.711
			l-3.228,0.396L507.543,436.216z M509.809,444.155l-1.095-5.695l-3.817,6.32L509.809,444.155z"/>
		<path fill="#003567" d="M519.709,434.678l2.995-0.358l-2.664,11.874l8.66-1.081l-0.537,2.354l-11.643,1.456L519.709,434.678z"/>
		<path fill="#003567" d="M544.552,436.727c0.184-2.124-1.294-3.185-3.796-2.857c-2.753,0.334-5.233,2.433-6.078,6.121
			c-0.642,2.977,0.923,4.79,3.878,4.413c3.116-0.389,4.639-2.631,5.205-4.147l3.229-0.411c-1.056,2.886-3.578,6.131-9.458,6.853
			c-5.133,0.648-6.801-2.571-5.903-6.569c0.908-4.008,4.046-7.806,9.639-8.515c4.92-0.606,6.887,1.674,6.514,4.701L544.552,436.727z
			"/>
	</g>
	<g>
		<path fill="#003567" d="M560.348,442.699l17.011-24.021l7.57-0.935l-5.108,22.833l3.451-0.431l-1.277,5.7l-3.466,0.438
			l-1.67,7.478l-6.723,0.807l1.679-7.454L559,448.697L560.348,442.699z M576.164,427.745l-0.106,0.006L565.973,442.3l7.126-0.885
			L576.164,427.745z"/>
		<path fill="#003567" d="M593.527,443.962l-1.784,7.932l-6.716,0.838l1.789-7.934L593.527,443.962z"/>
		<path fill="#003567" d="M617.612,422.57c0.618-2.74,0.115-4.255-2.326-3.946c-3.871,0.473-5.337,4.421-6.538,9.716l-0.396,1.764
			h0.104c1.635-2.031,4.319-3.548,7.468-3.966c6.396-0.787,7.722,3.704,6.264,10.164c-1.852,8.236-6.485,13.324-14.518,14.306
			c-10.081,1.263-9.538-6.621-7.567-15.422c2.271-10.164,4.664-19.908,16.564-21.39c5.195-0.643,9.431,0.958,7.949,7.926
			L617.612,422.57z M609.087,445.786c3.552-0.443,4.652-3.535,5.564-7.591c1.108-4.908,0.416-6.686-2.44-6.344
			c-2.905,0.369-4.442,2.43-5.542,7.319C605.795,443.288,605.679,446.223,609.087,445.786z"/>
		<path fill="#003567" d="M638.525,411.08c6.317-0.776,6.938,2.194,5.459,8.763c-1.481,6.574-3.514,9.897-9.821,10.661
			c-6.301,0.801-6.901-2.195-5.439-8.759C630.19,415.185,632.234,411.863,638.525,411.08z M635.03,426.646
			c2.037-0.255,2.705-2.305,3.602-6.318c0.812-3.632,1.062-5.635-0.973-5.367c-2.021,0.236-2.69,2.299-3.496,5.912
			C633.257,424.905,633.001,426.915,635.03,426.646z M657.478,407.884l4.533-0.558l-29.274,41.014l-4.521,0.564L657.478,407.884z
			 M656.208,425.694c6.313-0.781,6.932,2.215,5.451,8.775c-1.473,6.569-3.503,9.88-9.81,10.663c-6.322,0.775-6.919-2.214-5.43-8.759
			C647.865,429.806,649.904,426.49,656.208,425.694z M652.716,441.27c2.021-0.272,2.688-2.324,3.593-6.325
			c0.812-3.629,1.071-5.642-0.965-5.393c-2.029,0.274-2.695,2.329-3.508,5.933C650.94,439.516,650.661,441.523,652.716,441.27z"/>
	</g>
	<g>
		<path fill="#003567" d="M677.099,415.143l3.342-0.405l2.099,10.824l7.098-11.978l3.238-0.4l-9.455,15.011l-3.167,0.399
			L677.099,415.143z"/>
		<path fill="#003567" d="M692.634,420.134c0.893-4.026,4.04-7.806,10.045-8.563c6.034-0.752,7.599,2.462,6.693,6.473
			c-0.901,4.021-4.047,7.811-10.065,8.574C693.306,427.363,691.742,424.13,692.634,420.134z M706.264,418.424
			c0.703-3.118-0.726-5.046-4.088-4.628c-3.333,0.413-5.731,2.814-6.438,5.943c-0.703,3.129,0.729,5.046,4.072,4.621
			C703.165,423.948,705.566,421.553,706.264,418.424z"/>
		<path fill="#003567" d="M714.099,410.534l3.005-0.353l-2.679,11.869l8.674-1.074l-0.544,2.359l-11.646,1.449L714.099,410.534z"/>
	</g>
</g>
</svg>
