<?xml version="1.0" encoding="utf-8"?>
<!-- Generator: Adobe Illustrator 16.0.0, SVG Export Plug-In . SVG Version: 6.00 Build 0)  -->
<!DOCTYPE svg PUBLIC "-//W3C//DTD SVG 1.1//EN" "http://www.w3.org/Graphics/SVG/1.1/DTD/svg11.dtd">
<svg version="1.1" id="Layer_1" xmlns="http://www.w3.org/2000/svg" xmlns:xlink="http://www.w3.org/1999/xlink" x="0px" y="0px"
	 width="971.758px" height="529.592px" viewBox="0 0 971.758 529.592" enable-background="new 0 0 971.758 529.592"
	 xml:space="preserve">
<g>
	<path fill="#1C3866" d="M388.071,287.999c13.702,0,24.777-10.38,24.777-23.181c0-12.789-11.075-23.168-24.777-23.168
		c-13.71,0-24.791,10.379-24.791,23.168C363.28,277.619,374.361,287.999,388.071,287.999z M394.456,248.657
		c4.869,0,8.823,3.59,8.823,8.035c0,4.433-3.954,8.038-8.823,8.038c-4.867,0-8.82-3.605-8.82-8.038
		C385.635,252.247,389.588,248.657,394.456,248.657z M389.48,278.521c10.729-0.363,18.022-8.038,18.022-8.038
		s-4.224,12.646-17.655,13.407c-13.425,0.762-20.337-12.66-20.337-12.66S375.281,279.024,389.48,278.521z"/>
	<polygon fill="#1C3866" points="300.287,316.655 308.617,315.817 311.531,308.293 302.777,308.293 	"/>
	<polygon fill="#1C3866" points="330.389,330.032 321.726,331.36 320.518,339.961 328.627,337.89 	"/>
	<polygon fill="#1C3866" points="354.548,354.205 352.862,346.363 345.544,351.166 348.044,359.5 	"/>
	<polygon fill="#1C3866" points="306.913,279.305 298.91,275.726 293.237,282.307 301.18,284.947 	"/>
	<polygon fill="#1C3866" points="307.507,252.144 300.539,246.84 293.505,251.955 300.64,256.344 	"/>
	<polygon fill="#1C3866" points="313.596,221.753 305.232,224.096 310.37,230.702 318.282,229.161 	"/>
	<path fill="#1C3866" d="M376.146,372.506c6.974,1.749,4.996-15.429,4.996-21.687C381.142,350.82,369.481,370.83,376.146,372.506z"
		/>
	<path fill="#1C3866" d="M430.453,367.741c6.748-2.513-4.639-15.529-8.163-20.694C422.29,347.046,424.018,370.164,430.453,367.741z"
		/>
	<path fill="#1C3866" d="M407.007,377.091c9.04-1.224-1.353-20.542-4.271-27.923C402.737,349.168,398.354,378.25,407.007,377.091z"
		/>
	<path fill="#1C3866" d="M344.683,223.401c-0.171-0.18-0.354-0.36-0.547-0.517C343.498,222.321,343.794,222.616,344.683,223.401z"/>
	<path fill="#1C3866" d="M580.986,287.999c13.682,0,24.79-10.38,24.79-23.181c0-12.789-11.108-23.168-24.79-23.168
		c-13.704,0-24.8,10.379-24.8,23.168C556.186,277.619,567.282,287.999,580.986,287.999z M588.042,248.657
		c4.86,0,8.81,3.59,8.81,8.035c0,4.433-3.949,8.038-8.81,8.038c-4.888,0-8.834-3.605-8.834-8.038
		C579.208,252.247,583.154,248.657,588.042,248.657z M579.582,278.521c14.173,0.503,19.937-7.291,19.937-7.291
		s-6.901,13.422-20.329,12.66c-13.415-0.761-17.643-13.407-17.643-13.407S568.844,278.158,579.582,278.521z"/>
	<path fill="#1C3866" d="M624.917,222.884c-0.205,0.156-0.378,0.337-0.571,0.517C625.249,222.616,625.551,222.321,624.917,222.884z"
		/>
	<path fill="#1C3866" d="M356.396,121.496c1.725,6.918-0.975,12.208,4.002,21.3c6.352,11.515,20.73,17.271,18.432,15.529
		c-2.298-1.725-6.907-10.932-8.081-17.255c-1.133-6.32,1.81-12.901-3.441-21.299c-8.625-13.806-24.729-15.52-24.729-15.52
		C344.884,104.251,354.514,114.015,356.396,121.496z"/>
	<path fill="#1C3866" d="M328.973,115.056c1.528,5.435-0.88,9.595,3.582,16.757c5.618,9.026,18.418,13.559,16.392,12.196
		c-2.06-1.366-6.159-8.589-7.191-13.575c-1.011-4.972,2.626-12.687-2.071-19.293c-7.672-10.853-23.005-9.644-23.005-9.644
		C318.741,101.497,327.298,109.182,328.973,115.056z"/>
	<path fill="#1C3866" d="M299.38,103.032c1.246,5.61-2.181,9.411,2.432,17.164c5.833,9.777,24.126,13.305,21.772,11.682
		c-2.327-1.647-9.683-6.646-10.354-11.72c-0.676-5.102,3.127-9.865-1.821-17.088c-8.116-11.849-25.477-15.262-25.477-15.262
		C288.431,88.103,298.036,96.963,299.38,103.032z"/>
	<path fill="#1C3866" d="M293.678,116.335c0,0-4.615-5.771-4.615-10.946c0-5.169-4.03-13.215-9.759-18.97
		c-5.764-5.76-16.125-9.774-18.432-29.929c-0.903-8.065-3.419,17.269,1.146,26.489C266.642,92.174,283.891,112.881,293.678,116.335z
		"/>
	<path fill="#1C3866" d="M383.435,151.979c1.121,4.622,7.448,13.251,17.248,16.124c0,0-2.307-9.192,2.868-15.529
		c5.164-6.323-7.459-27.61-25.886-33.37c0,0,5.176,6.904,5.176,14.399C382.841,141.071,382.265,147.394,383.435,151.979z"/>
	<path fill="#1C3866" d="M440.96,195.135c-1.725,4.622-1.157,17.27,7.472,24.184c0,0-1.739-8.059,1.169-12.656
		c2.858-4.599,0-17.273-11.534-24.164C438.067,182.499,442.679,190.547,440.96,195.135z"/>
	<path fill="#1C3866" d="M419.093,180.182c-1.715,4.042,5.178,14.953,14.959,21.291c0,0-1.153-9.208,0-12.662
		c1.159-3.449-1.141-12.66-16.124-16.677C417.928,172.134,420.811,176.151,419.093,180.182z"/>
	<path fill="#1C3866" d="M462.254,225.05c1.146-7.471-0.599-13.227-3.472-18.388l-2.299-4.599c0,0,0.574,8.614-1.138,12.079
		c-1.726,3.437-2.887,18.402,4.598,28.177C459.944,242.32,461.088,232.545,462.254,225.05z"/>
	<polygon fill="#1C3866" points="664.93,315.817 673.254,316.655 670.746,308.293 662.02,308.293 	"/>
	<polygon fill="#1C3866" points="653.045,339.961 651.826,331.36 643.163,330.032 644.912,337.89 	"/>
	<polygon fill="#1C3866" points="627.996,351.166 620.688,346.363 619.007,354.205 625.506,359.5 	"/>
	<polygon fill="#1C3866" points="661.841,279.305 667.557,284.947 675.501,282.307 669.81,275.726 	"/>
	<polygon fill="#1C3866" points="668.11,256.344 675.251,251.955 668.214,246.84 661.253,252.144 	"/>
	<polygon fill="#1C3866" points="663.556,224.096 655.14,221.753 650.454,229.161 658.387,230.702 	"/>
	<path fill="#1C3866" d="M597.425,372.506c6.66-1.677-4.999-21.687-4.999-21.687C592.426,357.078,590.433,374.255,597.425,372.506z"
		/>
	<path fill="#1C3866" d="M543.093,367.741c6.455,2.423,8.184-20.694,8.184-20.694C547.734,352.211,536.354,365.228,543.093,367.741z
		"/>
	<path fill="#1C3866" d="M566.555,377.091c8.663,1.158,4.292-27.923,4.292-27.923C567.914,356.549,557.532,375.868,566.555,377.091z
		"/>
	<path fill="#1C3866" d="M589.937,158.326c-2.299,1.741,12.072-4.015,18.399-15.529c5.009-9.092,2.307-14.382,4.052-21.3
		c1.855-7.481,11.495-17.245,13.781-17.245c0,0-16.094,1.714-24.721,15.52c-5.255,8.398-2.299,14.979-3.457,21.299
		C596.838,147.394,592.225,156.601,589.937,158.326z"/>
	<path fill="#1C3866" d="M626.989,130.435c-1.017,4.986-5.123,12.208-7.156,13.575c-2.055,1.363,10.725-3.17,16.369-12.196
		c4.444-7.162,2.054-11.322,3.6-16.757c1.66-5.875,10.225-13.559,12.255-13.559c0,0-15.336-1.208-23.004,9.644
		C624.389,117.748,627.996,125.463,626.989,130.435z"/>
	<path fill="#1C3866" d="M655.532,120.158c-0.667,5.074-8.019,10.073-10.376,11.72c-2.328,1.623,15.969-1.905,21.796-11.682
		c4.599-7.753,1.192-11.553,2.435-17.164c1.352-6.069,10.929-14.929,13.419-15.225c0,0-17.334,3.413-25.468,15.262
		C652.406,110.293,656.2,115.056,655.532,120.158z"/>
	<path fill="#1C3866" d="M675.085,116.335c9.771-3.454,27.035-24.161,31.63-33.356c4.615-9.22,2.086-34.554,1.151-26.489
		c-2.284,20.155-12.668,24.169-18.409,29.929c-5.75,5.755-9.771,13.801-9.771,18.97
		C679.687,110.564,675.085,116.335,675.085,116.335z"/>
	<path fill="#1C3866" d="M568.079,168.103c9.766-2.873,16.088-11.502,17.247-16.124c1.158-4.585,0.567-10.908,0.567-18.376
		c0-7.495,5.202-14.399,5.202-14.399c-18.424,5.76-31.088,27.047-25.912,33.37C570.359,158.911,568.079,168.103,568.079,168.103z"/>
	<path fill="#1C3866" d="M519.177,206.663c2.858,4.598,1.138,12.656,1.138,12.656c8.63-6.914,9.227-19.562,7.488-24.184
		c-1.742-4.588,2.88-12.637,2.88-12.637C519.177,189.389,516.298,202.064,519.177,206.663z"/>
	<path fill="#1C3866" d="M534.714,188.811c1.134,3.454,0,12.662,0,12.662c9.767-6.338,16.685-17.249,14.936-21.291
		c-1.712-4.031,1.162-8.048,1.162-8.048C535.848,176.151,533.577,185.362,534.714,188.811z"/>
	<path fill="#1C3866" d="M512.267,202.064l-2.334,4.599c-2.838,5.161-4.572,10.917-3.422,18.388
		c1.156,7.495,2.301,17.27,2.301,17.27c7.461-9.774,6.314-24.74,4.599-28.177C511.693,210.678,512.267,202.064,512.267,202.064z"/>
	<path fill="#1C3866" d="M731.169,554.267c0,0-0.528-0.488-1.377-1.3C730.281,553.572,730.75,553.969,731.169,554.267z"/>
	<path fill="#1C3866" d="M719.903,223.055c-0.788-0.685-1.675-1.325-2.616-1.935c1.189,2.09,2.446,4.304,3.689,6.634
		C720.635,226.171,720.273,224.613,719.903,223.055z"/>
	<path fill="#1C3866" d="M247.285,173.486c9.743,5.192,12.745,12.531,13.504,17.821l0,0c3.361,2.266,4.591,6.735,3.678,10.6
		c0.143-0.18,0.295-0.396,0.438-0.562c1.565-1.961,2.847-3.428,3.702-4.42c0.173-0.169,0.295-0.285,0.417-0.438
		c1.312-0.591,2.611-0.968,3.711-0.968c4.695,0,20.231,13.731,15.151,12.634c-5.044-1.067-8.279-7.223-8.279-7.223
		c-0.741,5.806,7.569,18.401,5.046,17.359c-2.529-1.094-5.424-6.877-5.424-6.877c-1.799,8.667,3.613,17.693,0.378,14.811
		c-1.631-1.443-3.247-4.65-4.464-7.523c-2.003-10.197,4.135-21.013-6.588-17.563c-1.351,0.425-3.026,2.099-4.183,4.607
		c-0.099,1.177-0.474,2.374-1.143,3.595c-1.313,6.943,1.532,17.207,17.434,26.593l0.019,0.055l-6.507-0.736l2.881,6.85l-9.023-7.569
		c0.378,3.967,5.783,19.123,5.783,19.123l-6.137-7.188c0,7.445,3.909,14.41,5.787,18.56c-3.407-4.071-7.061-9.03-8.897-13.319
		c-5.743-13.39-1.66-29.205-10.133-28.484c-2.191,3.62-4.32,7.327-6.338,11.088c0.458,9.273,6.651,22.911,25.064,34.526
		c-3.738-0.166-12.346-3.98-12.346-3.98c1.802,5.784,11.56,16.267,11.56,16.267c-4.697,0.348-14.81-8.319-13.363-5.062
		c1.416,3.245,10.844,12.275,10.844,12.275c-2.455,0.591-7.512-2.563-11.475-5.423c-8.76-13.573-8.876-30.509-20.444-23.491
		c-0.374,0.27-0.769,0.582-1.122,0.954c-0.849,2.74-1.608,5.513-2.23,8.294c0.7,9.377,9.417,23.296,36.751,32.065
		c5.036,3.002,9.234,5.409,5.381,6.36c-5.783,1.456-14.448-0.358-14.448-0.358c5.764,6.875,23.471,13.728,21.65,14.809
		c-1.796,1.097-17.687-2.897-17.687-2.897c2.129,3.464,12.896,12.814,18.396,17.514c-5.691-2.573-11.984-5.871-16.711-9.58
		c-20.148-15.842-24.003-38.402-36.785-29.786c-0.154,0.075-0.269,0.217-0.418,0.322c0.064,3.848-0.181,7.688-0.544,11.513
		c4.843,11.705,22.469,27.945,58.866,32.361c5.887,2.176,10.164,4.045,5.835,4.676c-7.572,1.08-25.552-5.848-25.552-5.848
		s14.773,9.546,33.261,14.449c3.623,0.992-25.504-3.823-22.189-2.15c11.729,5.951,39.746,13.238,39.746,13.238
		c-10.829,1.098-27.171-3.012-27.171-3.012c9.356,9.08,36.945,18.155,48.37,21.646c-14.845-2.237-33.626-6.282-46.567-13.325
		c-28.513-15.533-48.769-39.771-61.247-24.883c-11.861,14.151,40.179,47.083,122.532,41.479c0.041,0.208-0.72,0.581-2.645,1.224
		c-6.47,2.167-33.272,4.625-33.272,4.625c13.551,3.685,32.653,0,43.144,0.605c2.656,0.169-22.081,7.612-20.043,8.01
		c3.253,0.684,24.018-1.711,32.044-2.447c3.866-0.371,7.045-0.811,9.144-1.108c-15.582,4.507-39.211,9.792-58.878,7.753
		c-31.254-3.284-63.631-26.424-71.54-7.029c-7.257,17.78,61.128,41.479,140.129-2.099c7.109-3.528,11.876-5.591,6.711-0.917
		c-10.137,9.248-20.934,12.942-20.934,12.942c6.621-1.104,16.417-4.827,24.636-6.785c3.688-0.876-14.143,12.051-11.09,11.102
		c8.353-2.629,22.769-9.543,30.314-13.265c-12.33,9.08-33.193,23.092-49.283,26.978c-37.953,9.183-83.033-4.649-84.011,18.121
		c-0.771,18.183,70.974,25.898,135.479-43.72l-21.409,29.412l25.878-23.993l-12.64,21.559l19.581-19.046
		c-7.856,11.81-19.612,27.598-30.792,35.286c-29.729,20.565-72.216,19.034-63.624,40.167c6.419,15.812,62.976,0.116,95.916-71.318
		c-4.972,14.514-14.624,34.655-15.535,36.159c-1.78,2.976,16.032-23.102,22.186-30.804c1.535-1.931-11.466,26.761-9.853,25.578
		c2.401-1.827,7.683-10.65,11.546-17.516c-3.521,10.534-8.143,21.621-13.709,28.964c-21.12,27.827-59.291,34.141-42.722,52.295
		c8.272,9.067,45.017-10.711,58.962-67.748c-2.775,12.901-6.555,26.065-6.993,27.404c-2.242,6.862,4.083-8.242,10.154-19.705
		c1.035-1.941-4.133,17.604-3.069,16.033c1.942-2.924,7.61-18.195,9.98-24.673c-3.975,32.694-27.421,75.619-28.703,77.331
		c-7.613,10.147,31.188-34.062,31.188-34.062c-2.396,19.187-12.474,37.424-12.474,37.424c12.474-6.71,26.384-45.113,26.384-45.113
		c-3.357,12.966-5.766,47.996-4.337,47.996c1.478,0,11.541-24.003,13.948-40.785c0.567-4.001,3.973,29.158,7.545,42.293
		c1.122-0.05,2.224-0.088,3.336-0.129c0.085-6.85-0.727-19.703-1.922-34.683c6.901,11.565,16.81,26.468,24.155,30.421
		c0,0-10.068-18.237-12.477-37.424c0,0,38.799,44.209,31.196,34.062c-1.302-1.712-24.72-44.637-28.711-77.331
		c2.343,6.478,8.009,21.749,9.98,24.673c1.07,1.571-4.121-17.975-3.076-16.033c6.089,11.463,12.412,26.567,10.149,19.705
		c-0.429-1.339-4.204-14.503-6.998-27.404c13.947,57.037,50.669,76.815,58.969,67.748c16.575-18.154-21.596-24.468-42.716-52.295
		c-5.549-7.343-10.177-18.43-13.705-28.964c3.867,6.865,9.135,15.688,11.55,17.516c1.604,1.183-11.404-27.509-9.873-25.578
		c6.181,7.702,23.956,33.779,22.189,30.804c-0.899-1.504-10.54-21.646-15.52-36.159c32.917,71.435,89.479,87.131,95.904,71.318
		c8.591-21.133-33.899-19.602-63.649-40.167c-11.121-7.688-22.882-23.477-30.75-35.286l19.547,19.046l-12.617-21.559l25.869,23.993
		l-21.378-29.412c64.498,69.618,136.231,61.902,135.466,43.72c-0.987-22.771-46.063-8.938-84.023-18.121
		c-16.073-3.886-36.977-17.897-49.289-26.978c7.549,3.722,21.962,10.636,30.316,13.265c3.056,0.949-14.776-11.978-11.092-11.102
		c8.235,1.958,18.035,5.681,24.645,6.785c0,0-10.775-3.694-20.93-12.942c-5.139-4.674-0.415-2.611,6.697,0.917
		c79.005,43.578,147.405,19.879,140.15,2.099c-7.949-19.395-40.308,3.745-71.561,7.029c-19.633,2.039-43.272-3.246-58.887-7.753
		c2.105,0.298,5.286,0.737,9.168,1.108c8.004,0.736,28.777,3.131,32.043,2.447c2.047-0.397-22.717-7.841-20.038-8.01
		c10.474-0.605,29.563,3.079,43.126-0.605c0,0-26.805-2.458-33.283-4.625c-1.905-0.643-2.691-1.016-2.619-1.224
		c82.337,5.604,134.373-27.327,122.508-41.479c-12.463-14.889-32.721,9.35-61.223,24.883c-12.961,7.043-31.729,11.088-46.584,13.325
		c11.435-3.49,39.014-12.565,48.39-21.646c0,0-16.347,4.109-27.188,3.012c0,0,28.041-7.287,39.737-13.238
		c3.331-1.673-25.792,3.143-22.169,2.15c18.474-4.903,33.257-14.449,33.257-14.449s-17.985,6.928-25.545,5.848
		c-4.333-0.631-0.064-2.5,5.821-4.676c34.893-4.235,52.512-19.304,58.19-30.881c-0.104-4.341-0.125-8.681,0.121-13.007
		c-0.134-0.104-0.258-0.233-0.399-0.309c-12.785-8.616-16.63,13.944-36.786,29.786c-4.73,3.709-11.003,7.007-16.711,9.557
		c5.507-4.676,16.266-14.026,18.392-17.49c0,0-15.896,3.994-17.686,2.897c-1.811-1.081,15.883-7.934,21.659-14.809
		c0,0-8.673,1.814-14.443,0.358c-3.854-0.951,0.331-3.358,5.362-6.36c19.334-6.208,29.352-14.977,33.808-22.896
		c-0.896-6.36-0.968-12.904-1.901-19.188c-10.104-4.713-10.605,11.306-18.936,24.262c-3.992,2.859-9.042,6.014-11.462,5.423
		c0,0,9.368-9.03,10.819-12.275c1.453-3.258-8.666,5.409-13.336,5.062c0,0,9.743-10.482,11.52-16.267c0,0-8.609,3.814-12.339,3.98
		c29.838-18.8,27.597-42.986,20.907-45.136c-11.337-3.671-6.147,13.588-12.302,28.006c-1.816,4.289-5.494,9.248-8.914,13.319
		c1.896-4.149,5.798-11.114,5.798-18.56l-6.129,7.188c0,0,5.404-15.156,5.765-19.123l-9.03,7.569l2.894-6.85l-6.496,0.736
		l0.014-0.055c19.238-11.355,19.374-23.992,16.147-30.522c-1.457-1.066-2.492-2.367-3.191-3.848
		c-0.258-0.194-0.554-0.36-0.847-0.425c-10.73-3.449-4.587,7.353-6.611,17.563c-1.208,2.873-2.806,6.08-4.429,7.523
		c-3.253,2.883,2.164-6.144,0.374-14.811c0,0-2.91,5.783-5.428,6.877c-2.547,1.042,5.767-11.554,5.054-17.359
		c0,0-3.253,6.155-8.306,7.223c-5.055,1.098,10.47-12.634,15.177-12.634c1.109,0,2.363,0.377,3.702,0.968
		c0.101,0.144,0.213,0.269,0.346,0.387c0.02-5.152,3.405-10.072,8.799-9.427c1.547-4.649,5.054-9.971,12.592-13.961
		c17.655-9.414,43.194-8.164,43.194-8.164c-12.919-13.162-32.51-18.495-51.796-19.887c2.571-7.838,13.753-18.813,18.3-21.48
		c5.132-2.998,7.248-6.143-0.428-5.134c-15.406,2.072-27.537,1.904-33.525,1.592c14.57-12.27,25.742-27.388,28.558-45.805
		c6.646-43.075-27.378-64.144-27.715-64.314l-8.362-4.635l4.416,8.476c0.068,0.14,6.382,16.186-4.312,39.367
		c-13.608,29.478-35.424,30.571-61.914,33.583c-12.789,1.471-26.953,3.338-40.096,8.282
		c-39.006-17.051-75.453-22.743-106.602-22.743c-61.094,0.014-101.67,21.701-102.094,21.917l0.077,0.156
		c-12.632-4.44-26.111-6.208-38.292-7.613c-26.509-3.012-48.312-4.106-61.921-33.583c-10.697-23.181-4.374-39.227-4.315-39.367
		l4.419-8.476l-8.379,4.635c-0.306,0.17-34.36,21.239-27.719,64.314c2.812,18.417,14.006,33.536,28.603,45.805
		c-6.016,0.312-18.149,0.48-33.539-1.592c-7.703-1.009-5.57,2.136-0.438,5.134c4.539,2.667,15.71,13.643,18.31,21.48
		c-19.302,1.392-38.881,6.725-51.805,19.887C204.095,165.322,229.622,164.072,247.285,173.486z M435.904,377.463
		c-8.15,1.906-15.841-8.18-15.841-8.18c0,6.724-1.921,11.539-13.445,12.982c-12.455,1.546-15.837-12.489-15.837-12.489
		s-2.884,11.524-15.84,8.638c-12.959-2.869-14.386-14.861-14.386-14.861s-9.605,8.606-18.725,2.86
		c-9.122-5.742-9.601-19.2-9.601-19.2c-3.824,3.851-13.438,3.372-19.676-2.398c-6.231-5.756-0.963-18.233-0.963-18.233
		s-12.469,5.295-19.671-7.678c-5.887-10.597,9.124-20.627,9.124-20.627s-16.811-2.409-18.241-15.854
		c-1.455-13.434,13.432-15.828,13.432-15.828s-15.335-4.819-12.951-17.283c2.396-12.49,12.469-11.048,18.722-9.118
		c0,0-14.223-11.757-5.294-23.038c6.058-7.635,12.925-7.031,16.885-5.78c0.761,0.292,1.657,0.669,2.632,1.094
		c0.418,0.221,0.652,0.359,0.652,0.359l-0.1-0.129c2.282,0.968,4.837,2.126,6.971,3.168c4.912,2.459,14.52,6.84,22.738,13.703
		c-0.066,3.026-0.931,7.21-2.76,13.315c-5.285,17.448,0.295,26.401,2.859,29.4c3.734,18.431,20.992,32.185,41.481,32.208
		c5.051,0,9.917-0.85,14.423-2.392c3.457,0.203,21.178,0.187,31.964-20.042c0,0-3.435,39.175-49.026,28.346
		c0,0,20.58,10.829,35.996,2.473c15.451-8.318,20.922-22.486,21.621-31.655c0,0,1.036,31.36-24.356,39.163
		c-29.829,9.166-51.099-9.98-51.099-9.98s19.415,24.261,47.676,17.078c14.745-3.763,21.938-11.668,21.938-11.668
		s-3.188,3.799-7.019,7.957c-14.464,8.822-32.938,13.305-54.534,12.737c-33.233-0.901-50.025-24.147-50.19-24.393l-0.423,0.298
		c0.74,1.079,18.715,30.484,54.131,31.845c1.311,0.064,2.632,0.064,3.939,0.064c29.247,0.751,49.318-7.597,63.143-22.214
		c-4.051,8.704-6.51,18.187-5.668,27.288c0.193,2.319,2.163,5.192,6.065,9.943C448.353,368.564,443.052,375.762,435.904,377.463z
		 M396.427,225.942c-3.965-5.668-11.142-15.457-17.372-21.42c-7.693-7.315,8.349,0.876,17.179,7.39
		c7.058,6.234,13.483,13.473,17.313,21.304C408.58,229.672,402.761,227.16,396.427,225.942z M424.554,264.818L424.554,264.818
		c-0.043,18.598-16.22,33.906-36.483,33.921c-20.31-0.015-36.461-15.323-36.473-33.921c0.012-18.582,16.163-33.895,36.473-33.908
		C408.359,230.923,424.511,246.236,424.554,264.818z M387.704,225.139c-2.731,0.04-5.42,0.312-8.018,0.812
		c-3.888-5.991-15.568-23.231-24.802-29.749c0,0,10.827,2.076,19.181,10.83C379.673,212.931,384.888,220.698,387.704,225.139z
		 M358.225,206.196c13.327,12.094,13.749,21.688,13.749,21.688s-1.277,0.775-2.242,1.213c-3.405-3.917-18.247-20.428-33.6-29.57
		c-10.637-6.312-7.59-7.261-2.246-6.465c3.495,0.512,8.261,1.921,10.154,2.73c0.205,0.064,0.348,0.129,0.521,0.203
		C348.405,198.278,353.091,201.561,358.225,206.196z M329.449,201.612c7.41,3.334,26.207,21.944,30.059,32.223
		c-0.438,0.026-1.047,0-1.854-0.129c-4.263-2.796-10.626-8.229-12.97-10.305l0.322,0.372c-8.092-7.361-21.622-14.782-25.976-18.401
		c-3.788-3.17-0.615-5.355,1.121-6.246C322.874,199.42,326.127,200.104,329.449,201.612z M517.578,338.315
		c-3.039,6.011-14.582,20.438-21.666,30.429c-7.088,9.993-10.43,17.517-11.258,20.824h-0.822
		c-0.846-3.308-4.178-10.831-11.255-20.824c-7.09-9.991-18.646-24.418-21.68-30.429c-1.321-2.618-0.801-8.024,1.128-7.55
		c1.202,0.297,16.495,24.843,26.102,38.519l-21.789-45.718c0.193-3.23,0.31-4.762,2.071-8.034
		c0.755-1.431,16.498,33.729,17.409,32.354c0.685-0.995-12.375-40.311-11.683-41.238c4.061-5.267,8.718-9.776,11.55-12.311
		c3.224-2.269,6.163-3.711,8.555-4.112c2.373,0.401,5.324,1.844,8.531,4.112c2.819,2.534,7.477,7.044,11.545,12.311
		c0.714,0.928-12.354,40.243-11.662,41.238c0.906,1.375,16.639-33.784,17.404-32.354c1.77,3.272,1.886,4.804,2.08,8.034
		l-21.782,45.718c9.593-13.676,24.892-38.222,26.107-38.519C518.376,330.291,518.879,335.697,517.578,338.315z M461.808,168.685
		c-1.904,3.836-4.319-19.192-10.062-25.451c0,0,2.391,15.363,0,18.25c-2.391,2.883-4.326-16.332-10.575-22.562
		c0,0,2.894,7.676,0.962,12.956c-1.906,5.267-1.906,5.267-1.906,5.267s-4.322-17.762-9.114-22.539c0,0,1.434,10.547-1.453,14.888
		c-2.634,3.966-1.664-7.919-8.579-15.825c-0.591-2.268-1.433-4.662-2.59-7.094c51.602,5.973,65.247,38.748,65.247,38.748
		c14.646-34.504,52.305-36.972,65.645-36.728c-0.72,1.725-1.286,3.426-1.714,5.074c-6.919,7.906-5.91,19.791-8.589,15.825
		c-2.87-4.341-1.423-14.888-1.423-14.888c-4.799,4.777-9.111,22.539-9.111,22.539s0,0-1.933-5.267
		c-1.916-5.28,0.976-12.956,0.976-12.956c-6.268,6.23-8.173,25.445-10.584,22.562c-2.388-2.887,0-18.25,0-18.25
		c-5.749,6.259-8.136,29.287-10.054,25.451c-1.947-3.84-0.49-13.938-0.49-13.938c-5.282,7.714-5.77,27.87-8.163,22.566
		c-2.398-5.282,0-14.4,0-14.4s-2.398,0-6.264,9.118c-1.898,4.585-2.612,12.012-2.733,17.524c-1.656-4.853-4.985-9.488-5.253-9.875
		c-0.027-0.181-0.045-0.323-0.045-0.323s-3.002,4.686-4.548,9.672c-0.179-5.461-0.909-12.579-2.757-16.998
		c-3.844-9.118-6.252-9.118-6.252-9.118s2.408,9.118,0,14.4c-2.375,5.304-2.867-14.853-8.145-22.566
		C462.3,154.748,463.728,164.845,461.808,168.685z M463.007,114.375c0.207-1.417,0.414-3.22,0.414-4.932l-0.021-0.322
		c1.242,0.577,2.596,1.111,3.974,1.624v4.556h1.922c0-1.375,0-2.665,0-3.952c1.735,0.503,3.584,0.967,5.537,1.3
		c-0.133,1.171-0.285,2.356-0.474,3.569l1.905,0.245c0.162-1.163,0.341-2.333,0.475-3.505c1.258,0.152,2.535,0.31,3.91,0.401
		c0.054,0.72,0.068,1.415,0.068,2.162c0,1.468-0.079,3.064-0.079,4.646h1.929c0-1.517,0.079-3.086,0.079-4.646
		c0-0.718-0.031-1.392-0.079-2.074c0.562,0,1.111,0.079,1.719,0.079c1.229,0.027,2.455,0,3.634-0.079
		c0.105,1.508,0.187,3.039,0.391,4.741l1.923-0.221c-0.2-1.633-0.3-3.141-0.401-4.635c1.978-0.143,3.856-0.374,5.604-0.735
		c0.532,1.637,1.086,3.244,1.66,4.779l1.79-0.669c-0.533-1.429-1.062-2.964-1.559-4.483c1.707-0.373,3.31-0.863,4.785-1.429
		c0.477,1.637,1.191,3.155,2.028,4.635l1.677-0.964c-0.849-1.471-1.502-2.91-1.902-4.378c0.897-0.391,1.769-0.801,2.596-1.226
		c0.784,1.342,1.456,2.694,2.146,4.071l1.723-0.838c-0.627-1.277-1.282-2.55-2.003-3.824c3.091,1.171,6.073,2.151,8.878,2.934
		c-4.51,7.164-15.537,21.047-33.152,20.571c-16.232-0.443-25.201-13.964-28.706-20.814c1.963-0.568,3.974-1.182,6.093-1.918
		l0.014,0.4c0,1.573-0.208,3.271-0.387,4.687L463.007,114.375z M481.828,279.771c8.206-2.833,17.711,9.262,22.985,17.347
		c-6.905-7.047-13.744-11.465-19.307-12.531c0,0-0.842-0.218-1.267-0.18c-0.436-0.038-1.254,0.18-1.254,0.18
		c-6.058,1.172-13.533,6.221-21.008,14.318C464.514,294.605,472.078,283.106,481.828,279.771z M685.463,249.312
		c2.408,12.464-12.959,17.283-12.959,17.283s14.885,2.395,13.452,15.828c-1.434,13.444-18.244,15.854-18.244,15.854
		s15.01,10.03,9.125,20.627c-7.193,12.973-19.704,7.678-19.704,7.678s5.292,12.478-0.934,18.233
		c-6.234,5.771-15.835,6.249-19.679,2.398c0,0-0.484,13.458-9.588,19.2c-9.104,5.746-18.712-2.86-18.712-2.86
		s-1.447,11.992-14.417,14.861c-12.962,2.887-15.835-8.638-15.835-8.638s-3.389,14.035-15.847,12.489
		c-11.513-1.443-13.41-6.259-13.41-12.982c0,0-7.716,10.086-15.855,8.18c-7.287-1.725-12.623-9.169-10.637-18.585
		c3.657-4.494,5.461-7.264,5.686-9.479c0.859-9.336-1.771-19.019-5.991-27.902c13.828,14.986,34.049,23.59,63.743,22.828
		c1.29,0,2.603,0,3.913-0.064c35.426-1.36,53.415-30.766,54.155-31.845l-0.438-0.298c-0.152,0.245-16.993,23.491-50.199,24.393
		c-21.222,0.567-39.489-3.736-53.852-12.301c-3.983-4.35-7.409-8.394-7.409-8.394s7.213,7.905,21.945,11.668
		c28.262,7.183,47.676-17.078,47.676-17.078s-21.282,19.146-51.088,9.98c-25.396-7.803-24.354-39.163-24.354-39.163
		c0.683,9.169,6.168,23.337,21.602,31.655c15.438,8.356,36.005-2.473,36.005-2.473c-45.602,10.829-49.018-28.346-49.018-28.346
		c10.77,20.229,28.462,20.245,31.946,20.042c4.526,1.542,9.384,2.392,14.437,2.392c20.508-0.011,37.74-13.777,41.473-32.208
		c2.562-2.985,8.16-11.911,2.873-29.4c-1.862-6.105-2.68-10.289-2.761-13.315c8.233-6.863,17.829-11.244,22.736-13.703
		c3.534-1.778,8.357-3.746,10.823-4.791c4.041-1.017,10.354-0.952,15.916,6.079c8.938,11.281-5.287,23.038-5.287,23.038
		C672.993,238.264,683.096,236.822,685.463,249.312z M611.383,233.706c-0.772,0.129-1.409,0.155-1.834,0.129
		c3.843-10.278,22.645-28.889,30.058-32.223c3.322-1.508,6.574-2.191,9.278-2.486c1.745,0.891,4.911,3.076,1.141,6.246
		c-4.375,3.619-17.884,11.04-25.986,18.401l0.306-0.372C622.026,225.476,615.671,230.91,611.383,233.706z M632.92,199.526
		c-15.348,9.143-30.19,25.653-33.618,29.57c-0.957-0.438-2.206-1.213-2.206-1.213s0.403-9.594,13.74-21.688
		c5.124-4.635,9.811-7.918,13.652-10.201c0.158-0.074,0.302-0.139,0.508-0.203c1.835-0.799,8.764-2.127,9.774-2.666
		C640.354,192.211,643.818,193.061,632.92,199.526z M589.349,225.951c-2.58-0.499-5.26-0.771-7.997-0.812
		c2.806-4.441,8.027-12.208,13.654-18.107c8.334-8.754,19.165-10.83,19.165-10.83C604.944,202.719,593.251,219.959,589.349,225.951z
		 M589.991,204.522c-6.224,5.963-13.403,15.752-17.363,21.42c-6.338,1.207-12.15,3.73-17.123,7.273
		c3.814-7.831,10.226-15.069,17.316-21.304C581.647,205.398,597.671,197.207,589.991,204.522z M580.978,230.91
		c20.288,0.014,36.446,15.326,36.47,33.908c-0.023,18.598-16.182,33.906-36.47,33.921c-20.284-0.015-36.433-15.323-36.463-33.921
		C544.545,246.236,560.694,230.923,580.978,230.91z M740.886,160.789c-7.753-0.965-14.847,0.46-24.926,5.82
		c-13.506,7.21-16.097,16.767-16.176,22.771c-7.919-3.287-25.226-8.966-49.633-8.966c-19.83,0-44.274,3.735-72.205,15.534
		c-7.896,3.344-14.836,7.005-20.961,10.908l-0.032,0.009c6.566-5.83,14.189-11.665,23.046-17.356
		C631.934,156.125,702.207,137.31,740.886,160.789z M579.324,107.613c1.823-1.121,3.674-2.149,5.557-3.077
		c0.41,0.167,1.816-0.861,1.816-0.861c13.401-6.145,27.898-7.819,42.017-9.452c25.84-2.938,52.577-5.991,67.554-38.405
		c6.859-14.875,7.185-26.37,6.188-33.583c7.972,7.237,20.06,23.104,15.852,50.509c-6.724,43.643-63.434,69.011-96.627,80.256
		c-28.119,9.515-117.022,46.939-111.524,137.072c-0.694-1.711-1.343-3.501-1.898-5.305l-0.35-1.084
		c-8.872-27.854-18.93-59.429,4.481-95.681c18.481-28.619,38.589-26.337,39.436-26.235l5.434,0.724l-2.483-4.884
		C554.231,156.525,541.9,130.782,579.324,107.613z M522.872,88.206c0.103,0.917,0.201,1.853,0.344,2.784l1.886-0.23
		c-0.178-1.6-0.396-3.172-0.503-4.714c0.998,0.193,2.014,0.383,3.012,0.567c0.394,1.943,0.618,3.926,0.845,6.113l1.893-0.217
		c-0.194-1.893-0.37-3.719-0.696-5.499c1.535,0.295,3.09,0.631,4.653,0.978c0.348,2.048,0.655,4.133,1.143,6.223l1.855-0.401
		c-0.373-1.763-0.676-3.565-0.972-5.396c1.379,0.336,2.774,0.672,4.181,1.005c0.292,2.292,0.71,4.635,1.596,7.019l1.793-0.683
		c-0.713-1.918-1.106-3.851-1.357-5.848c1.433,0.387,2.872,0.751,4.347,1.159c0.4,1.725,0.719,3.518,0.719,5.046h1.94
		c0-1.464-0.237-2.985-0.541-4.477c2.66,0.747,5.326,1.531,8.029,2.391v0.322h1.09l0.344,0.133
		c-6.401,5.073-16.757,7.763-24.575,7.145c-7.372-0.581-12.026-4.663-13.767-6.527C521.417,92.623,522.275,90.243,522.872,88.206z
		 M517.948,84.962c-0.427,0.493-0.944,0.992-1.493,1.545c-0.13-0.618-0.259-1.209-0.314-1.804
		C516.759,84.809,517.347,84.856,517.948,84.962z M457.741,83.339c-0.252,0.889-0.474,1.816-0.786,2.679l1.814,0.594
		c0.422-1.189,0.707-2.371,1.006-3.467c1.729-0.129,3.514-0.269,5.293-0.398c-0.107,1.196-0.295,2.354-0.457,3.427l1.904,0.333
		c0.193-1.186,0.373-2.51,0.514-3.892c2.424-0.126,4.917-0.218,7.427-0.292c-0.072,1.233-0.096,2.486-0.101,3.672h1.931
		c0-1.291,0.027-2.513,0.103-3.699c1.585-0.051,3.169-0.051,4.801-0.051c0.293,0,0.57,0,0.847,0v4.441h1.911
		c0-1.412,0-2.934,0-4.415c1.56,0.024,3.131,0.024,4.714,0.075v7.135h1.925c-0.013-2.357-0.013-4.714-0.013-7.057
		c2.17,0.064,4.368,0.19,6.561,0.323c-0.102,1.712-0.102,3.427-0.102,4.996h1.934c0-1.569,0-3.257,0.101-4.867
		c1.481,0.102,3.019,0.231,4.554,0.384c0.393,1.678,0.393,3.464,0.393,5.529h1.931c0-1.831-0.037-3.61-0.359-5.358
		c1.121,0.115,2.228,0.244,3.386,0.396c0.084,0.35,0.221,0.734,0.323,1.07l1.839-0.604l-0.088-0.271
		c1.057,0.132,2.093,0.285,3.149,0.438c0.077,1.134,0.277,2.292,0.701,3.579c-6.495,6.014-18.032,14.372-31.803,13.629
		c-15.537-0.894-26.561-11.231-31.934-17.595C453.305,83.801,455.505,83.546,457.741,83.339z M412.971,91.866
		c0,0.809-0.027,1.644-0.027,2.482h1.953c0-1.065,0-2.057,0.009-3.025c1.998-0.563,4.034-1.135,6.174-1.661
		c-0.04,0.877-0.081,1.78-0.081,2.614h1.896c0-0.978,0.081-2.019,0.158-3.116c1.431-0.337,2.859-0.656,4.337-1.006
		c0.205,1.148,0.378,2.256,0.595,3.261l1.882-0.387c-0.207-0.992-0.405-2.126-0.603-3.284c2.062-0.438,4.189-0.863,6.365-1.264
		v3.002h1.918c0-1.121,0-2.241,0-3.376c1.764-0.318,3.607-0.604,5.452-0.9c0.576,1.868,1.382,3.954,2.488,6.181
		c-1.158,1.895-5.294,7.651-12.523,8.901c-7.354,1.263-17.542-1.702-23.09-7.499C410.878,92.497,411.931,92.174,412.971,91.866z
		 M250.44,72.743c-4.196-27.405,7.89-43.272,15.87-50.509c-1.016,7.213-0.666,18.709,6.211,33.583
		c14.946,32.415,41.68,35.468,67.551,38.405c16.742,1.929,34.028,3.913,49.364,13.39c37.41,23.169,25.087,48.912,24.54,49.993
		l-2.479,4.884l5.439-0.724c0.844-0.102,20.947-2.384,39.422,26.235c23.421,36.252,13.36,67.827,4.493,95.681l-0.344,1.084
		c-0.591,1.804-1.215,3.594-1.905,5.305c5.502-90.133-83.405-127.558-111.528-137.072
		C313.875,141.753,257.165,116.385,250.44,72.743z M388.74,189.508c8.784,5.627,16.354,11.395,22.852,17.167l-0.238-0.092
		c-6.024-3.786-12.849-7.38-20.572-10.636c-27.926-11.799-52.383-15.534-72.162-15.534c-24.424,0-41.736,5.679-49.663,8.966
		c-0.079-6.004-2.646-15.561-16.159-22.771c-10.082-5.36-17.18-6.785-24.943-5.82C266.537,137.31,336.822,156.125,388.74,189.508z"
		/>
	<path fill="#1C3866" d="M733.772,413.164c-0.193,1.104-0.289,2.007-0.289,2.704C733.483,415.868,733.584,414.811,733.772,413.164z"
		/>
</g>
<circle opacity="0.1" fill="#EAE8DF" cx="3.936" cy="3.936" r="3.936"/>
<circle opacity="0.1" fill="#EAE8DF" cx="965.822" cy="525.657" r="3.937"/>
<circle opacity="0.1" fill="#EAE8DF" cx="967.822" cy="3.936" r="3.937"/>
<circle opacity="0.1" fill="#EAE8DF" cx="3.936" cy="524.389" r="3.937"/>
</svg>
